<svg xmlns="http://www.w3.org/2000/svg" viewBox="0 0 32 32" fill="none">
  <defs>
    <linearGradient id="bg" x1="0" y1="0" x2="32" y2="32" gradientUnits="userSpaceOnUse">
      <stop offset="0%" stop-color="#a855f7"/>
      <stop offset="100%" stop-color="#3b82f6"/>
    </linearGradient>
  </defs>
  <rect width="32" height="32" rx="8" fill="url(#bg)"/>
  <!-- Brain icon (simplified lucide-react brain) -->
  <path d="M12 8C9.8 8 8 9.8 8 12c0 1.1.4 2.1 1.1 2.8C8.4 15.4 8 16.4 8 17.5c0 1.9 1.1 3.5 2.8 4.3-.1.3-.2.7-.2 1.2h10.8c0-.5-.1-.9-.2-1.2C22.9 21 24 19.4 24 17.5c0-1.1-.4-2.1-1.1-2.7.7-.7 1.1-1.7 1.1-2.8 0-2.2-1.8-4-4-4-.4 0-.8.1-1.1.2C18.2 7.1 17.2 6.5 16 6.5c-1.2 0-2.2.6-2.9 1.7-.3-.1-.7-.2-1.1-.2z" stroke="white" stroke-width="1.5" stroke-linecap="round" stroke-linejoin="round"/>
  <line x1="16" y1="8" x2="16" y2="23" stroke="white" stroke-width="1.5" stroke-linecap="round"/>
  <line x1="16" y1="14" x2="20" y2="12" stroke="white" stroke-width="1.2" stroke-linecap="round"/>
  <line x1="16" y1="17" x2="20" y2="19" stroke="white" stroke-width="1.2" stroke-linecap="round"/>
  <line x1="16" y1="14" x2="12" y2="12" stroke="white" stroke-width="1.2" stroke-linecap="round"/>
  <line x1="16" y1="17" x2="12" y2="19" stroke="white" stroke-width="1.2" stroke-linecap="round"/>
</svg>
